:SAMPLES-PER-SECOND 30
:FULLY-SPECIFIED
:DEGREES
135
root  -23.57688964 38.84044557 49.53022454 3.783850193 -4.436449051 3.12368989
lowerback  8.809009552 -0.6802440286 -0.7687630653
upperback  1.752930045 -0.805159986 5.00906992
thorax  -3.036659956 -0.3824740052 5.758190155
lowerneck  -14.29090023 6.830269814 0.5132520199
upperneck  26.00740051 9.693869591 -0.5906790495
head  10.77929974 4.40459013 0.9995139241
lclavicle  0 -5.34481991e-014 2.981770104e-014
lhumerus  -31.68000031 -1.951089978 90.98059845
lradius  0.003583191894 6.643666666e-007 31.7614994
lwrist  -1.645157397e-007 -3.533851896e-007 -4.100029945
lhand  -5.505032044e-031 -15.8135004 33.60620117
lfingers  90 7.125020027 -90
lthumb  93.41605384 18.01962653 79.07819387
rclavicle  0 -5.34481991e-014 2.981770104e-014
rhumerus  -43.6291008 -25.08009911 -65.4382019
rradius  -1.296506525e-006 2.359789448e-007 41.95550156
rwrist  -2.281664457e-008 -8.593936229e-009 13.19610023
rhand  -1.345748685e-031 10.2737999 9.996669769
rfingers  -90 -7.125020027 -90
rthumb  -72.52445805 -22.91766803 -51.04506765
rfemur  -31.04200745 -0.2745303214 19.10040092
rtibia  9.670418422e-007 1.119611625e-006 40.21992111
rfoot  2.556521167e-006 -14.4206152 -0.2165158093
rtoes  2.336001174 19.8686595 -96.84438506
lfemur  -8.499896049 1.095689654 -26.0230999
ltibia  -3.641206786e-005 2.004581745e-007 49.21300888
lfoot  -5.693161143e-007 -0.2926311791 -8.516820908
ltoes  -5.298979543 -19.31302686 -105.6655569
136
root  -23.59600067 38.86555649 49.7993289 3.82201004 -4.507191181 2.94652009
lowerback  8.909310341 -0.6353160143 -0.4437209368
upperback  1.803670049 -0.7112479806 5.122980118
thorax  -3.052289963 -0.3386450112 5.683979988
lowerneck  -13.88150024 6.864200115 0.4551340044
upperneck  25.6345005 9.757419586 -0.6634965539
head  10.56330013 4.43516016 0.9642670155
lclavicle  0 -5.34481991e-014 2.981770104e-014
lhumerus  -32.23120117 -2.004209757 91.03700256
lradius  0.003583191894 6.643666666e-007 31.85479927
lwrist  -1.645157397e-007 -3.533851896e-007 -4.024980068
lhand  -5.505032044e-031 -15.8135004 33.60620117
lfingers  90 7.125020027 -90
lthumb  93.41605384 18.01962653 79.07819387
rclavicle  0 -5.34481991e-014 2.981770104e-014
rhumerus  -43.89459991 -24.48540115 -65.54219818
rradius  -1.296506525e-006 2.359789448e-007 42.29880142
rwrist  -2.281664457e-008 -8.593936229e-009 12.98560047
rhand  -1.345748685e-031 10.2737999 9.996669769
rfingers  -90 -7.125020027 -90
rthumb  -72.52445805 -22.91766803 -51.04506765
rfemur  -30.59960747 -0.5274559259 19.36220169
rtibia  9.670418422e-007 1.119611625e-006 40.15331268
rfoot  2.556521167e-006 -14.53620243 0.06236250699
rtoes  2.336001174 19.8686595 -96.84438506
lfemur  -10.0751152 1.203228593 -25.69259644
ltibia  -3.641206786e-005 2.004581745e-007 51.5263176
lfoot  -5.693161143e-007 -0.4354336858 -8.31538105
ltoes  -5.298979543 -19.31302686 -105.6655569
137
root  -23.61888885 38.87955673 50.09088591 3.799230099 -4.696569443 3.069459915
lowerback  8.979319572 -0.5265240073 -0.4828580618
upperback  1.781159997 -0.5666790009 5.148260117
thorax  -3.128700018 -0.2645759881 5.719230175
lowerneck  -13.43420029 6.858369827 0.3974640071
upperneck  25.46570015 9.745100021 -0.6351172924
head  10.40960026 4.439060211 0.9579411149
lclavicle  0 -5.34481991e-014 2.981770104e-014
lhumerus  -32.95009995 -1.851500154 90.99210358
lradius  0.003583191894 6.643666666e-007 31.8871994
lwrist  -1.645157397e-007 -3.533851896e-007 -4.476610184
lhand  -5.505032044e-031 -15.8135004 33.60620117
lfingers  90 7.125020027 -90
lthumb  93.41605384 18.01962653 79.07819387
rclavicle  0 -5.34481991e-014 2.981770104e-014
rhumerus  -44.31480026 -23.92259979 -65.52670288
rradius  -1.296506525e-006 2.359789448e-007 42.58229828
rwrist  -2.281664457e-008 -8.593936229e-009 12.68299961
rhand  -1.345748685e-031 10.2737999 9.996669769
rfingers  -90 -7.125020027 -90
rthumb  -72.52445805 -22.91766803 -51.04506765
rfemur  -30.14540672 -0.8500685096 19.29439926
rtibia  9.670418422e-007 1.119611625e-006 40.15271378
rfoot  2.556521167e-006 -14.54370785 0.5163549781
rtoes  2.336001174 19.8686595 -96.84438506
lfemur  -11.51211071 1.574898839 -25.70619583
ltibia  -3.641206786e-005 2.004581745e-007 53.61701965
lfoot  -5.693161143e-007 -0.9519987702 -7.88615036
ltoes  -5.298979543 -19.31302686 -105.6655569
138
root  -23.64911057 38.88800013 50.35533454 3.660189867 -4.853621483 2.882940054
lowerback  9.372209549 -0.3961730003 -0.3012459278
upperback  1.858219981 -0.3639129996 5.297770023
thorax  -3.287940025 -0.1633789986 5.758399963
lowerneck  -13.5685997 6.840549946 0.4354979992
upperneck  25.57550049 9.755299568 -0.7736076117
head  10.48670006 4.426479816 0.9141271114
lclavicle  0 -5.34481991e-014 2.981770104e-014
lhumerus  -33.4919014 -1.817699671 91.00559998
lradius  0.003583191894 6.643666666e-007 32.06480026
lwrist  -1.645157397e-007 -3.533851896e-007 -4.656740189
lhand  -5.505032044e-031 -15.8135004 33.60620117
lfingers  90 7.125020027 -90
lthumb  93.41605384 18.01962653 79.07819387
rclavicle  0 -5.34481991e-014 2.981770104e-014
rhumerus  -44.4129982 -23.54840279 -65.51380157
rradius  -1.296506525e-006 2.359789448e-007 42.79050064
rwrist  -2.281664457e-008 -8.593936229e-009 12.43700027
rhand  -1.345748685e-031 10.2737999 9.996669769
rfingers  -90 -7.125020027 -90
rthumb  -72.52445805 -22.91766803 -51.04506765
rfemur  -29.56159592 -0.9452658892 19.55459976
rtibia  9.670418422e-007 1.119611625e-006 40.17140198
rfoot  2.556521167e-006 -14.84580898 0.7104955912
rtoes  2.336001174 19.8686595 -96.84438506
lfemur  -12.89570522 2.002628803 -25.3313961
ltibia  -3.641206786e-005 2.004581745e-007 55.58850861
lfoot  -5.693161143e-007 -1.693653703 -7.326539993
ltoes  -5.298979543 -19.31302686 -105.6655569
139
root  -23.67955606 38.89266788 50.59311033 3.524879932 -4.884810925 2.49290967
lowerback  9.835109711 -0.2740980089 0.1026479602
upperback  2.051480055 -0.1494469941 5.487480164
thorax  -3.366090059 -0.06143439934 5.709020138
lowerneck  -14.03489971 6.817210197 0.497254014
upperneck  25.68799973 9.755940437 -0.9177521467
head  10.63099957 4.405340195 0.8772889376
lclavicle  0 -5.34481991e-014 2.981770104e-014
lhumerus  -33.75270081 -1.867769837 91.04519653
lradius  0.003583191894 6.643666666e-007 32.2159996
lwrist  -1.645157397e-007 -3.533851896e-007 -4.599880219
lhand  -5.505032044e-031 -15.8135004 33.60620117
lfingers  90 7.125020027 -90
lthumb  93.41605384 18.01962653 79.07819387
rclavicle  0 -5.34481991e-014 2.981770104e-014
rhumerus  -44.28419876 -23.12249947 -65.73889923
rradius  -1.296506525e-006 2.359789448e-007 43.16870117
rwrist  -2.281664457e-008 -8.593936229e-009 12.1882
rhand  -1.345748685e-031 10.2737999 9.996669769
rfingers  -90 -7.125020027 -90
rthumb  -72.52445805 -22.91766803 -51.04506765
rfemur  -28.96891022 -0.9912508726 20.03790474
rtibia  9.670418422e-007 1.119611625e-006 40.19920349
rfoot  2.556521167e-006 -15.28399277 0.6555957198
rtoes  2.336001174 19.8686595 -96.84438506
lfemur  -14.37321472 2.242468357 -24.71409416
ltibia  -3.641206786e-005 2.004581745e-007 57.49811554
lfoot  -5.693161143e-007 -2.504449844 -6.838069916
ltoes  -5.298979543 -19.31302686 -105.6655569
